<?xml version="1.0" encoding="utf-8" standalone="no"?>
<!DOCTYPE svg PUBLIC "-//W3C//DTD SVG 1.1//EN"
  "http://www.w3.org/Graphics/SVG/1.1/DTD/svg11.dtd">
<!-- Created with matplotlib (https://matplotlib.org/) -->
<svg height="288pt" version="1.1" viewBox="0 0 1152 288" width="1152pt" xmlns="http://www.w3.org/2000/svg" xmlns:xlink="http://www.w3.org/1999/xlink">
 <defs>
  <style type="text/css">
*{stroke-linecap:butt;stroke-linejoin:round;}
  </style>
 </defs>
 <g id="figure_1">
  <g id="patch_1">
   <path d="M 0 288 
L 1152 288 
L 1152 0 
L 0 0 
z
" style="fill:#ffffff;"/>
  </g>
  <g id="axes_1">
   <g id="patch_2">
    <path d="M 144 256.32 
L 1036.8 256.32 
L 1036.8 34.56 
L 144 34.56 
z
" style="fill:#ffffff;"/>
   </g>
   <g id="matplotlib.axis_1">
    <g id="xtick_1">
     <g id="line2d_1">
      <defs>
       <path d="M 0 0 
L 0 3.5 
" id="mb7337f7040" style="stroke:#000000;stroke-width:0.8;"/>
      </defs>
      <g>
       <use style="stroke:#000000;stroke-width:0.8;" x="144" xlink:href="#mb7337f7040" y="256.32"/>
      </g>
     </g>
     <g id="text_1">
      <!-- 2800 -->
      <defs>
       <path d="M 19.1875 8.296875 
L 53.609375 8.296875 
L 53.609375 0 
L 7.328125 0 
L 7.328125 8.296875 
Q 12.9375 14.109375 22.625 23.890625 
Q 32.328125 33.6875 34.8125 36.53125 
Q 39.546875 41.84375 41.421875 45.53125 
Q 43.3125 49.21875 43.3125 52.78125 
Q 43.3125 58.59375 39.234375 62.25 
Q 35.15625 65.921875 28.609375 65.921875 
Q 23.96875 65.921875 18.8125 64.3125 
Q 13.671875 62.703125 7.8125 59.421875 
L 7.8125 69.390625 
Q 13.765625 71.78125 18.9375 73 
Q 24.125 74.21875 28.421875 74.21875 
Q 39.75 74.21875 46.484375 68.546875 
Q 53.21875 62.890625 53.21875 53.421875 
Q 53.21875 48.921875 51.53125 44.890625 
Q 49.859375 40.875 45.40625 35.40625 
Q 44.1875 33.984375 37.640625 27.21875 
Q 31.109375 20.453125 19.1875 8.296875 
z
" id="DejaVuSans-50"/>
       <path d="M 31.78125 34.625 
Q 24.75 34.625 20.71875 30.859375 
Q 16.703125 27.09375 16.703125 20.515625 
Q 16.703125 13.921875 20.71875 10.15625 
Q 24.75 6.390625 31.78125 6.390625 
Q 38.8125 6.390625 42.859375 10.171875 
Q 46.921875 13.96875 46.921875 20.515625 
Q 46.921875 27.09375 42.890625 30.859375 
Q 38.875 34.625 31.78125 34.625 
z
M 21.921875 38.8125 
Q 15.578125 40.375 12.03125 44.71875 
Q 8.5 49.078125 8.5 55.328125 
Q 8.5 64.0625 14.71875 69.140625 
Q 20.953125 74.21875 31.78125 74.21875 
Q 42.671875 74.21875 48.875 69.140625 
Q 55.078125 64.0625 55.078125 55.328125 
Q 55.078125 49.078125 51.53125 44.71875 
Q 48 40.375 41.703125 38.8125 
Q 48.828125 37.15625 52.796875 32.3125 
Q 56.78125 27.484375 56.78125 20.515625 
Q 56.78125 9.90625 50.3125 4.234375 
Q 43.84375 -1.421875 31.78125 -1.421875 
Q 19.734375 -1.421875 13.25 4.234375 
Q 6.78125 9.90625 6.78125 20.515625 
Q 6.78125 27.484375 10.78125 32.3125 
Q 14.796875 37.15625 21.921875 38.8125 
z
M 18.3125 54.390625 
Q 18.3125 48.734375 21.84375 45.5625 
Q 25.390625 42.390625 31.78125 42.390625 
Q 38.140625 42.390625 41.71875 45.5625 
Q 45.3125 48.734375 45.3125 54.390625 
Q 45.3125 60.0625 41.71875 63.234375 
Q 38.140625 66.40625 31.78125 66.40625 
Q 25.390625 66.40625 21.84375 63.234375 
Q 18.3125 60.0625 18.3125 54.390625 
z
" id="DejaVuSans-56"/>
       <path d="M 31.78125 66.40625 
Q 24.171875 66.40625 20.328125 58.90625 
Q 16.5 51.421875 16.5 36.375 
Q 16.5 21.390625 20.328125 13.890625 
Q 24.171875 6.390625 31.78125 6.390625 
Q 39.453125 6.390625 43.28125 13.890625 
Q 47.125 21.390625 47.125 36.375 
Q 47.125 51.421875 43.28125 58.90625 
Q 39.453125 66.40625 31.78125 66.40625 
z
M 31.78125 74.21875 
Q 44.046875 74.21875 50.515625 64.515625 
Q 56.984375 54.828125 56.984375 36.375 
Q 56.984375 17.96875 50.515625 8.265625 
Q 44.046875 -1.421875 31.78125 -1.421875 
Q 19.53125 -1.421875 13.0625 8.265625 
Q 6.59375 17.96875 6.59375 36.375 
Q 6.59375 54.828125 13.0625 64.515625 
Q 19.53125 74.21875 31.78125 74.21875 
z
" id="DejaVuSans-48"/>
      </defs>
      <g transform="translate(131.275 270.918437)scale(0.1 -0.1)">
       <use xlink:href="#DejaVuSans-50"/>
       <use x="63.623047" xlink:href="#DejaVuSans-56"/>
       <use x="127.246094" xlink:href="#DejaVuSans-48"/>
       <use x="190.869141" xlink:href="#DejaVuSans-48"/>
      </g>
     </g>
    </g>
    <g id="xtick_2">
     <g id="line2d_2">
      <g>
       <use style="stroke:#000000;stroke-width:0.8;" x="322.56" xlink:href="#mb7337f7040" y="256.32"/>
      </g>
     </g>
     <g id="text_2">
      <!-- 3000 -->
      <defs>
       <path d="M 40.578125 39.3125 
Q 47.65625 37.796875 51.625 33 
Q 55.609375 28.21875 55.609375 21.1875 
Q 55.609375 10.40625 48.1875 4.484375 
Q 40.765625 -1.421875 27.09375 -1.421875 
Q 22.515625 -1.421875 17.65625 -0.515625 
Q 12.796875 0.390625 7.625 2.203125 
L 7.625 11.71875 
Q 11.71875 9.328125 16.59375 8.109375 
Q 21.484375 6.890625 26.8125 6.890625 
Q 36.078125 6.890625 40.9375 10.546875 
Q 45.796875 14.203125 45.796875 21.1875 
Q 45.796875 27.640625 41.28125 31.265625 
Q 36.765625 34.90625 28.71875 34.90625 
L 20.21875 34.90625 
L 20.21875 43.015625 
L 29.109375 43.015625 
Q 36.375 43.015625 40.234375 45.921875 
Q 44.09375 48.828125 44.09375 54.296875 
Q 44.09375 59.90625 40.109375 62.90625 
Q 36.140625 65.921875 28.71875 65.921875 
Q 24.65625 65.921875 20.015625 65.03125 
Q 15.375 64.15625 9.8125 62.3125 
L 9.8125 71.09375 
Q 15.4375 72.65625 20.34375 73.4375 
Q 25.25 74.21875 29.59375 74.21875 
Q 40.828125 74.21875 47.359375 69.109375 
Q 53.90625 64.015625 53.90625 55.328125 
Q 53.90625 49.265625 50.4375 45.09375 
Q 46.96875 40.921875 40.578125 39.3125 
z
" id="DejaVuSans-51"/>
      </defs>
      <g transform="translate(309.835 270.918437)scale(0.1 -0.1)">
       <use xlink:href="#DejaVuSans-51"/>
       <use x="63.623047" xlink:href="#DejaVuSans-48"/>
       <use x="127.246094" xlink:href="#DejaVuSans-48"/>
       <use x="190.869141" xlink:href="#DejaVuSans-48"/>
      </g>
     </g>
    </g>
    <g id="xtick_3">
     <g id="line2d_3">
      <g>
       <use style="stroke:#000000;stroke-width:0.8;" x="501.12" xlink:href="#mb7337f7040" y="256.32"/>
      </g>
     </g>
     <g id="text_3">
      <!-- 3200 -->
      <g transform="translate(488.395 270.918437)scale(0.1 -0.1)">
       <use xlink:href="#DejaVuSans-51"/>
       <use x="63.623047" xlink:href="#DejaVuSans-50"/>
       <use x="127.246094" xlink:href="#DejaVuSans-48"/>
       <use x="190.869141" xlink:href="#DejaVuSans-48"/>
      </g>
     </g>
    </g>
    <g id="xtick_4">
     <g id="line2d_4">
      <g>
       <use style="stroke:#000000;stroke-width:0.8;" x="679.68" xlink:href="#mb7337f7040" y="256.32"/>
      </g>
     </g>
     <g id="text_4">
      <!-- 3400 -->
      <defs>
       <path d="M 37.796875 64.3125 
L 12.890625 25.390625 
L 37.796875 25.390625 
z
M 35.203125 72.90625 
L 47.609375 72.90625 
L 47.609375 25.390625 
L 58.015625 25.390625 
L 58.015625 17.1875 
L 47.609375 17.1875 
L 47.609375 0 
L 37.796875 0 
L 37.796875 17.1875 
L 4.890625 17.1875 
L 4.890625 26.703125 
z
" id="DejaVuSans-52"/>
      </defs>
      <g transform="translate(666.955 270.918437)scale(0.1 -0.1)">
       <use xlink:href="#DejaVuSans-51"/>
       <use x="63.623047" xlink:href="#DejaVuSans-52"/>
       <use x="127.246094" xlink:href="#DejaVuSans-48"/>
       <use x="190.869141" xlink:href="#DejaVuSans-48"/>
      </g>
     </g>
    </g>
    <g id="xtick_5">
     <g id="line2d_5">
      <g>
       <use style="stroke:#000000;stroke-width:0.8;" x="858.24" xlink:href="#mb7337f7040" y="256.32"/>
      </g>
     </g>
     <g id="text_5">
      <!-- 3600 -->
      <defs>
       <path d="M 33.015625 40.375 
Q 26.375 40.375 22.484375 35.828125 
Q 18.609375 31.296875 18.609375 23.390625 
Q 18.609375 15.53125 22.484375 10.953125 
Q 26.375 6.390625 33.015625 6.390625 
Q 39.65625 6.390625 43.53125 10.953125 
Q 47.40625 15.53125 47.40625 23.390625 
Q 47.40625 31.296875 43.53125 35.828125 
Q 39.65625 40.375 33.015625 40.375 
z
M 52.59375 71.296875 
L 52.59375 62.3125 
Q 48.875 64.0625 45.09375 64.984375 
Q 41.3125 65.921875 37.59375 65.921875 
Q 27.828125 65.921875 22.671875 59.328125 
Q 17.53125 52.734375 16.796875 39.40625 
Q 19.671875 43.65625 24.015625 45.921875 
Q 28.375 48.1875 33.59375 48.1875 
Q 44.578125 48.1875 50.953125 41.515625 
Q 57.328125 34.859375 57.328125 23.390625 
Q 57.328125 12.15625 50.6875 5.359375 
Q 44.046875 -1.421875 33.015625 -1.421875 
Q 20.359375 -1.421875 13.671875 8.265625 
Q 6.984375 17.96875 6.984375 36.375 
Q 6.984375 53.65625 15.1875 63.9375 
Q 23.390625 74.21875 37.203125 74.21875 
Q 40.921875 74.21875 44.703125 73.484375 
Q 48.484375 72.75 52.59375 71.296875 
z
" id="DejaVuSans-54"/>
      </defs>
      <g transform="translate(845.515 270.918437)scale(0.1 -0.1)">
       <use xlink:href="#DejaVuSans-51"/>
       <use x="63.623047" xlink:href="#DejaVuSans-54"/>
       <use x="127.246094" xlink:href="#DejaVuSans-48"/>
       <use x="190.869141" xlink:href="#DejaVuSans-48"/>
      </g>
     </g>
    </g>
    <g id="xtick_6">
     <g id="line2d_6">
      <g>
       <use style="stroke:#000000;stroke-width:0.8;" x="1036.8" xlink:href="#mb7337f7040" y="256.32"/>
      </g>
     </g>
     <g id="text_6">
      <!-- 3800 -->
      <g transform="translate(1024.075 270.918437)scale(0.1 -0.1)">
       <use xlink:href="#DejaVuSans-51"/>
       <use x="63.623047" xlink:href="#DejaVuSans-56"/>
       <use x="127.246094" xlink:href="#DejaVuSans-48"/>
       <use x="190.869141" xlink:href="#DejaVuSans-48"/>
      </g>
     </g>
    </g>
   </g>
   <g id="matplotlib.axis_2">
    <g id="ytick_1">
     <g id="line2d_7">
      <defs>
       <path d="M 0 0 
L -3.5 0 
" id="m6e6413ffd2" style="stroke:#000000;stroke-width:0.8;"/>
      </defs>
      <g>
       <use style="stroke:#000000;stroke-width:0.8;" x="144" xlink:href="#m6e6413ffd2" y="249.700299"/>
      </g>
     </g>
     <g id="text_7">
      <!-- −80 -->
      <defs>
       <path d="M 10.59375 35.5 
L 73.1875 35.5 
L 73.1875 27.203125 
L 10.59375 27.203125 
z
" id="DejaVuSans-8722"/>
      </defs>
      <g transform="translate(115.895313 253.499517)scale(0.1 -0.1)">
       <use xlink:href="#DejaVuSans-8722"/>
       <use x="83.789062" xlink:href="#DejaVuSans-56"/>
       <use x="147.412109" xlink:href="#DejaVuSans-48"/>
      </g>
     </g>
    </g>
    <g id="ytick_2">
     <g id="line2d_8">
      <g>
       <use style="stroke:#000000;stroke-width:0.8;" x="144" xlink:href="#m6e6413ffd2" y="216.601791"/>
      </g>
     </g>
     <g id="text_8">
      <!-- −60 -->
      <g transform="translate(115.895313 220.40101)scale(0.1 -0.1)">
       <use xlink:href="#DejaVuSans-8722"/>
       <use x="83.789062" xlink:href="#DejaVuSans-54"/>
       <use x="147.412109" xlink:href="#DejaVuSans-48"/>
      </g>
     </g>
    </g>
    <g id="ytick_3">
     <g id="line2d_9">
      <g>
       <use style="stroke:#000000;stroke-width:0.8;" x="144" xlink:href="#m6e6413ffd2" y="183.503284"/>
      </g>
     </g>
     <g id="text_9">
      <!-- −40 -->
      <g transform="translate(115.895313 187.302502)scale(0.1 -0.1)">
       <use xlink:href="#DejaVuSans-8722"/>
       <use x="83.789062" xlink:href="#DejaVuSans-52"/>
       <use x="147.412109" xlink:href="#DejaVuSans-48"/>
      </g>
     </g>
    </g>
    <g id="ytick_4">
     <g id="line2d_10">
      <g>
       <use style="stroke:#000000;stroke-width:0.8;" x="144" xlink:href="#m6e6413ffd2" y="150.404776"/>
      </g>
     </g>
     <g id="text_10">
      <!-- −20 -->
      <g transform="translate(115.895313 154.203995)scale(0.1 -0.1)">
       <use xlink:href="#DejaVuSans-8722"/>
       <use x="83.789062" xlink:href="#DejaVuSans-50"/>
       <use x="147.412109" xlink:href="#DejaVuSans-48"/>
      </g>
     </g>
    </g>
    <g id="ytick_5">
     <g id="line2d_11">
      <g>
       <use style="stroke:#000000;stroke-width:0.8;" x="144" xlink:href="#m6e6413ffd2" y="117.306269"/>
      </g>
     </g>
     <g id="text_11">
      <!-- 0 -->
      <g transform="translate(130.6375 121.105487)scale(0.1 -0.1)">
       <use xlink:href="#DejaVuSans-48"/>
      </g>
     </g>
    </g>
    <g id="ytick_6">
     <g id="line2d_12">
      <g>
       <use style="stroke:#000000;stroke-width:0.8;" x="144" xlink:href="#m6e6413ffd2" y="84.207761"/>
      </g>
     </g>
     <g id="text_12">
      <!-- 20 -->
      <g transform="translate(124.275 88.00698)scale(0.1 -0.1)">
       <use xlink:href="#DejaVuSans-50"/>
       <use x="63.623047" xlink:href="#DejaVuSans-48"/>
      </g>
     </g>
    </g>
    <g id="ytick_7">
     <g id="line2d_13">
      <g>
       <use style="stroke:#000000;stroke-width:0.8;" x="144" xlink:href="#m6e6413ffd2" y="51.109254"/>
      </g>
     </g>
     <g id="text_13">
      <!-- 40 -->
      <g transform="translate(124.275 54.908472)scale(0.1 -0.1)">
       <use xlink:href="#DejaVuSans-52"/>
       <use x="63.623047" xlink:href="#DejaVuSans-48"/>
      </g>
     </g>
    </g>
   </g>
   <g id="line2d_14">
    <path clip-path="url(#p25b11c3c15)" d="M 143.1072 244.947469 
L 277.92 244.951626 
L 278.8128 239.734849 
L 279.7056 236.509192 
L 280.5984 234.016331 
L 282.384 230.107915 
L 284.1696 226.986487 
L 285.9552 224.313487 
L 288.6336 220.798648 
L 292.2048 216.586378 
L 296.6688 211.359981 
L 298.4544 208.980056 
L 300.24 206.083238 
L 301.1328 204.238319 
L 302.0256 201.868226 
L 302.9184 198.468249 
L 303.8112 192.617203 
L 304.704 178.75085 
L 305.5968 127.362758 
L 306.4896 52.919672 
L 307.3824 59.802537 
L 309.168 104.973709 
L 310.0608 120.269184 
L 310.9536 131.793975 
L 312.7392 150.067364 
L 318.9888 204.858439 
L 319.8816 210.421433 
L 320.7744 214.197653 
L 321.6672 216.618482 
L 322.56 218.155364 
L 323.4528 222.507755 
L 324.3456 224.573523 
L 325.2384 225.820571 
L 326.1312 226.62535 
L 327.024 227.14942 
L 327.9168 227.481404 
L 329.7024 227.769687 
L 331.488 227.743276 
L 334.1664 227.35917 
L 336.8448 226.717483 
L 340.416 225.593877 
L 343.9872 224.217907 
L 349.344 221.838365 
L 357.3792 218.270669 
L 365.4144 214.983694 
L 375.2352 210.956836 
L 378.8064 209.299707 
L 381.4848 207.884196 
L 384.1632 206.202358 
L 385.9488 204.826149 
L 387.7344 203.087232 
L 388.6272 201.994512 
L 389.52 200.662888 
L 390.4128 198.961256 
L 391.3056 196.63582 
L 392.1984 193.124398 
L 393.0912 186.922106 
L 393.984 172.828727 
L 394.8768 130.98991 
L 395.7696 73.351962 
L 396.6624 79.71794 
L 397.5552 103.204239 
L 398.448 121.755267 
L 399.3408 134.968812 
L 400.2336 145.340044 
L 402.0192 162.107094 
L 404.6976 183.991843 
L 406.4832 197.734138 
L 407.376 203.774815 
L 408.2688 208.796312 
L 409.1616 212.674594 
L 410.0544 215.575717 
L 410.9472 217.758366 
L 411.84 219.425489 
L 412.7328 220.708814 
L 413.6256 221.695191 
L 414.5184 222.446745 
L 415.4112 223.010882 
L 417.1968 223.718349 
L 418.9824 224.032623 
L 420.768 224.088658 
L 423.4464 223.865466 
L 427.0176 223.233083 
L 431.4816 222.175327 
L 452.016 216.98535 
L 460.0512 215.328788 
L 468.0864 213.908026 
L 477.0144 212.555738 
L 487.728 211.163756 
L 503.7984 209.332156 
L 518.976 207.548575 
L 526.1184 206.502882 
L 531.4752 205.490502 
L 535.0464 204.608931 
L 537.7248 203.759845 
L 540.4032 202.640011 
L 542.1888 201.645788 
L 543.9744 200.314943 
L 544.8672 199.45093 
L 545.76 198.384011 
L 546.6528 197.018375 
L 547.5456 195.183308 
L 548.4384 192.542469 
L 549.3312 188.337901 
L 550.224 180.531024 
L 551.1168 162.563222 
L 552.0096 119.563204 
L 552.9024 85.470015 
L 553.7952 96.151439 
L 554.688 115.40918 
L 555.5808 130.499928 
L 556.4736 141.942399 
L 557.3664 151.194196 
L 559.152 166.124632 
L 560.9376 178.307781 
L 562.7232 188.482237 
L 564.5088 197.174549 
L 566.2944 204.29946 
L 567.1872 207.114848 
L 568.08 209.459365 
L 568.9728 211.411493 
L 569.8656 213.047975 
L 570.7584 214.427845 
L 572.544 216.577302 
L 574.3296 218.09725 
L 576.1152 219.155575 
L 577.9008 219.882903 
L 579.6864 220.378183 
L 582.3648 220.836892 
L 585.936 221.143702 
L 591.2928 221.321435 
L 606.4704 221.71433 
L 614.5056 222.190788 
L 623.4336 222.959158 
L 633.2544 224.035697 
L 645.7536 225.65 
L 661.824 227.970516 
L 692.1792 232.639279 
L 716.2848 236.243515 
L 735.0336 238.818451 
L 751.9968 240.928705 
L 768.96 242.822539 
L 786.816 244.590208 
L 805.5648 246.21383 
L 825.2064 247.681156 
L 845.7408 248.983674 
L 867.168 250.115696 
L 889.488 251.07419 
L 913.5936 251.885235 
L 939.4848 252.530039 
L 967.1616 252.997798 
L 998.4096 253.298001 
L 1033.2288 253.40667 
L 1037.6928 253.406449 
L 1037.6928 253.406449 
" style="fill:none;stroke:#000000;stroke-linecap:square;stroke-width:1.5;"/>
   </g>
   <g id="line2d_15">
    <path clip-path="url(#p25b11c3c15)" d="M 143.1072 236.318176 
L 286.848 236.212793 
L 292.2048 235.894887 
L 297.5616 235.359297 
L 303.8112 234.490348 
L 307.3824 233.830985 
L 309.168 233.34228 
L 310.9536 232.653235 
L 312.7392 231.743829 
L 314.5248 230.635544 
L 317.2032 228.685612 
L 320.7744 225.764079 
L 322.56 224.251201 
L 323.4528 222.127901 
L 325.2384 215.911305 
L 328.8096 202.961841 
L 331.488 194.337888 
L 335.0592 183.116492 
L 335.952 179.851157 
L 336.8448 176.141071 
L 337.7376 171.811639 
L 338.6304 166.704613 
L 340.416 154.266123 
L 342.2016 141.603233 
L 343.0944 136.355387 
L 343.9872 131.990964 
L 344.88 128.424393 
L 345.7728 125.5436 
L 346.6656 123.243091 
L 347.5584 121.422695 
L 348.4512 119.986179 
L 349.344 118.844929 
L 351.1296 117.153613 
L 352.9152 115.889194 
L 358.272 112.409756 
L 360.9504 110.340931 
L 364.5216 107.267796 
L 368.9856 103.394133 
L 371.664 101.312053 
L 374.3424 99.542342 
L 377.0208 98.13773 
L 378.8064 97.411025 
L 380.592 96.847968 
L 383.2704 96.292141 
L 385.9488 96.050559 
L 388.6272 96.082973 
L 391.3056 96.347731 
L 394.8768 96.982674 
L 399.3408 97.850519 
L 403.8048 98.362319 
L 407.376 98.880626 
L 410.0544 99.510365 
L 412.7328 100.388556 
L 415.4112 101.500189 
L 418.9824 103.26965 
L 423.4464 105.77941 
L 433.2672 111.685395 
L 441.3024 116.376879 
L 448.4448 120.263364 
L 454.6944 123.42524 
L 461.8368 126.786087 
L 469.872 130.292431 
L 478.8 133.918753 
L 488.6208 137.665106 
L 501.12 142.179131 
L 516.2976 147.406005 
L 533.2608 153.004492 
L 546.6528 157.218504 
L 552.9024 159.025244 
L 555.5808 159.592991 
L 558.2592 159.866227 
L 562.7232 159.934503 
L 566.2944 160.057827 
L 568.9728 160.328533 
L 571.6512 160.777151 
L 575.2224 161.630903 
L 578.7936 162.720253 
L 583.2576 164.316525 
L 589.5072 166.823686 
L 597.5424 170.311831 
L 606.4704 174.436091 
L 614.5056 178.405525 
L 620.7552 181.71717 
L 627.0048 185.271007 
L 633.2544 189.089794 
L 640.3968 193.752106 
L 651.1104 201.081627 
L 661.824 208.313963 
L 668.9664 212.849776 
L 675.216 216.539167 
L 680.5728 219.455249 
L 685.9296 222.123435 
L 691.2864 224.536622 
L 696.6432 226.699759 
L 702 228.627851 
L 707.3568 230.342625 
L 713.6064 232.10686 
L 720.7488 233.860054 
L 727.8912 235.384117 
L 735.9264 236.880726 
L 745.7472 238.46633 
L 756.4608 239.963087 
L 768.96 241.475872 
L 783.2448 242.963518 
L 798.4224 244.310087 
L 814.4928 245.504305 
L 831.456 246.529438 
L 848.4192 247.332837 
L 866.2752 247.961158 
L 885.9168 248.423513 
L 906.4512 248.68555 
L 929.664 248.755444 
L 955.5552 248.609407 
L 986.8032 248.203466 
L 1026.9792 247.446815 
L 1037.6928 247.217537 
L 1037.6928 247.217537 
" style="fill:none;stroke:#ff0000;stroke-linecap:square;stroke-width:1.5;"/>
   </g>
   <g id="line2d_16">
    <path clip-path="url(#p25b11c3c15)" d="M 143.1072 239.998482 
L 280.5984 239.946462 
L 283.2768 239.70614 
L 286.848 239.104852 
L 291.312 238.05384 
L 296.6688 236.511585 
L 302.0256 234.711777 
L 304.704 233.634961 
L 305.5968 233.159616 
L 306.4896 232.486692 
L 307.3824 231.534452 
L 308.2752 230.299824 
L 310.0608 227.21921 
L 314.5248 218.423892 
L 317.2032 213.338468 
L 319.8816 208.763283 
L 322.56 204.825609 
L 325.2384 201.082247 
L 327.9168 196.865588 
L 330.5952 192.172268 
L 333.2736 186.955738 
L 335.0592 182.959299 
L 336.8448 178.172934 
L 337.7376 175.323534 
L 338.6304 172.077297 
L 340.416 164.405739 
L 342.2016 156.491948 
L 343.0944 153.222103 
L 343.9872 150.632456 
L 344.88 148.700252 
L 345.7728 147.327702 
L 346.6656 146.400141 
L 347.5584 145.813855 
L 348.4512 145.484055 
L 349.344 145.3442 
L 351.1296 145.439826 
L 353.808 146.044955 
L 358.272 147.16199 
L 360.9504 147.570254 
L 363.6288 147.708279 
L 366.3072 147.589847 
L 368.9856 147.26124 
L 372.5568 146.602276 
L 385.056 144.040266 
L 391.3056 143.136364 
L 393.984 142.716433 
L 394.8768 142.480759 
L 395.7696 142.08383 
L 396.6624 141.471073 
L 398.448 139.754753 
L 400.2336 137.940511 
L 402.0192 136.472796 
L 403.8048 135.470107 
L 405.5904 134.917141 
L 407.376 134.773869 
L 409.1616 134.991702 
L 410.9472 135.501852 
L 412.7328 136.223221 
L 415.4112 137.54777 
L 420.768 140.544479 
L 428.8032 145.011954 
L 434.16 147.741047 
L 439.5168 150.228667 
L 444.8736 152.480708 
L 451.1232 154.837778 
L 457.3728 156.943208 
L 464.5152 159.095544 
L 472.5504 161.26188 
L 481.4784 163.432246 
L 492.192 165.80532 
L 505.584 168.53753 
L 521.6544 171.586122 
L 535.9392 174.07896 
L 543.9744 175.292695 
L 548.4384 175.794485 
L 551.1168 175.880716 
L 552.0096 175.767975 
L 552.9024 175.483495 
L 553.7952 174.994134 
L 555.5808 173.55096 
L 558.2592 171.201407 
L 560.0448 169.988073 
L 561.8304 169.163581 
L 563.616 168.710151 
L 565.4016 168.581673 
L 567.1872 168.72646 
L 568.9728 169.091397 
L 571.6512 169.939466 
L 575.2224 171.417485 
L 580.5792 173.97278 
L 605.5776 186.245875 
L 653.7888 209.224768 
L 664.5024 214.132023 
L 673.4304 217.983518 
L 681.4656 221.205655 
L 688.608 223.843727 
L 695.7504 226.252836 
L 702.8928 228.430961 
L 710.0352 230.388504 
L 718.0704 232.351061 
L 726.1056 234.091867 
L 735.0336 235.806477 
L 744.8544 237.472134 
L 756.4608 239.200293 
L 768.96 240.827773 
L 782.352 242.353162 
L 797.5296 243.853526 
L 813.6 245.213105 
L 830.5632 246.420997 
L 848.4192 247.46526 
L 867.168 248.335837 
L 886.8096 249.026604 
L 908.2368 249.554243 
L 931.4496 249.899108 
L 957.3408 250.055179 
L 986.8032 250.00358 
L 1021.6224 249.714526 
L 1037.6928 249.521362 
L 1037.6928 249.521362 
" style="fill:none;stroke:#00bfbf;stroke-linecap:square;stroke-width:1.5;"/>
   </g>
   <g id="patch_3">
    <path d="M 144 256.32 
L 144 34.56 
" style="fill:none;stroke:#000000;stroke-linecap:square;stroke-linejoin:miter;stroke-width:0.8;"/>
   </g>
   <g id="patch_4">
    <path d="M 1036.8 256.32 
L 1036.8 34.56 
" style="fill:none;stroke:#000000;stroke-linecap:square;stroke-linejoin:miter;stroke-width:0.8;"/>
   </g>
   <g id="patch_5">
    <path d="M 144 256.32 
L 1036.8 256.32 
" style="fill:none;stroke:#000000;stroke-linecap:square;stroke-linejoin:miter;stroke-width:0.8;"/>
   </g>
   <g id="patch_6">
    <path d="M 144 34.56 
L 1036.8 34.56 
" style="fill:none;stroke:#000000;stroke-linecap:square;stroke-linejoin:miter;stroke-width:0.8;"/>
   </g>
  </g>
 </g>
 <defs>
  <clipPath id="p25b11c3c15">
   <rect height="221.76" width="892.8" x="144" y="34.56"/>
  </clipPath>
 </defs>
</svg>
