<?xml version="1.0" encoding="utf-8" standalone="no"?>
<!DOCTYPE svg PUBLIC "-//W3C//DTD SVG 1.1//EN"
  "http://www.w3.org/Graphics/SVG/1.1/DTD/svg11.dtd">
<!-- Created with matplotlib (https://matplotlib.org/) -->
<svg height="288pt" version="1.1" viewBox="0 0 1152 288" width="1152pt" xmlns="http://www.w3.org/2000/svg" xmlns:xlink="http://www.w3.org/1999/xlink">
 <defs>
  <style type="text/css">
*{stroke-linecap:butt;stroke-linejoin:round;}
  </style>
 </defs>
 <g id="figure_1">
  <g id="patch_1">
   <path d="M 0 288 
L 1152 288 
L 1152 0 
L 0 0 
z
" style="fill:#ffffff;"/>
  </g>
  <g id="axes_1">
   <g id="patch_2">
    <path d="M 144 256.32 
L 1036.8 256.32 
L 1036.8 34.56 
L 144 34.56 
z
" style="fill:#ffffff;"/>
   </g>
   <g id="matplotlib.axis_1">
    <g id="xtick_1">
     <g id="line2d_1">
      <defs>
       <path d="M 0 0 
L 0 3.5 
" id="m435e50866d" style="stroke:#000000;stroke-width:0.8;"/>
      </defs>
      <g>
       <use style="stroke:#000000;stroke-width:0.8;" x="144" xlink:href="#m435e50866d" y="256.32"/>
      </g>
     </g>
     <g id="text_1">
      <!-- 2800 -->
      <defs>
       <path d="M 19.1875 8.296875 
L 53.609375 8.296875 
L 53.609375 0 
L 7.328125 0 
L 7.328125 8.296875 
Q 12.9375 14.109375 22.625 23.890625 
Q 32.328125 33.6875 34.8125 36.53125 
Q 39.546875 41.84375 41.421875 45.53125 
Q 43.3125 49.21875 43.3125 52.78125 
Q 43.3125 58.59375 39.234375 62.25 
Q 35.15625 65.921875 28.609375 65.921875 
Q 23.96875 65.921875 18.8125 64.3125 
Q 13.671875 62.703125 7.8125 59.421875 
L 7.8125 69.390625 
Q 13.765625 71.78125 18.9375 73 
Q 24.125 74.21875 28.421875 74.21875 
Q 39.75 74.21875 46.484375 68.546875 
Q 53.21875 62.890625 53.21875 53.421875 
Q 53.21875 48.921875 51.53125 44.890625 
Q 49.859375 40.875 45.40625 35.40625 
Q 44.1875 33.984375 37.640625 27.21875 
Q 31.109375 20.453125 19.1875 8.296875 
z
" id="DejaVuSans-50"/>
       <path d="M 31.78125 34.625 
Q 24.75 34.625 20.71875 30.859375 
Q 16.703125 27.09375 16.703125 20.515625 
Q 16.703125 13.921875 20.71875 10.15625 
Q 24.75 6.390625 31.78125 6.390625 
Q 38.8125 6.390625 42.859375 10.171875 
Q 46.921875 13.96875 46.921875 20.515625 
Q 46.921875 27.09375 42.890625 30.859375 
Q 38.875 34.625 31.78125 34.625 
z
M 21.921875 38.8125 
Q 15.578125 40.375 12.03125 44.71875 
Q 8.5 49.078125 8.5 55.328125 
Q 8.5 64.0625 14.71875 69.140625 
Q 20.953125 74.21875 31.78125 74.21875 
Q 42.671875 74.21875 48.875 69.140625 
Q 55.078125 64.0625 55.078125 55.328125 
Q 55.078125 49.078125 51.53125 44.71875 
Q 48 40.375 41.703125 38.8125 
Q 48.828125 37.15625 52.796875 32.3125 
Q 56.78125 27.484375 56.78125 20.515625 
Q 56.78125 9.90625 50.3125 4.234375 
Q 43.84375 -1.421875 31.78125 -1.421875 
Q 19.734375 -1.421875 13.25 4.234375 
Q 6.78125 9.90625 6.78125 20.515625 
Q 6.78125 27.484375 10.78125 32.3125 
Q 14.796875 37.15625 21.921875 38.8125 
z
M 18.3125 54.390625 
Q 18.3125 48.734375 21.84375 45.5625 
Q 25.390625 42.390625 31.78125 42.390625 
Q 38.140625 42.390625 41.71875 45.5625 
Q 45.3125 48.734375 45.3125 54.390625 
Q 45.3125 60.0625 41.71875 63.234375 
Q 38.140625 66.40625 31.78125 66.40625 
Q 25.390625 66.40625 21.84375 63.234375 
Q 18.3125 60.0625 18.3125 54.390625 
z
" id="DejaVuSans-56"/>
       <path d="M 31.78125 66.40625 
Q 24.171875 66.40625 20.328125 58.90625 
Q 16.5 51.421875 16.5 36.375 
Q 16.5 21.390625 20.328125 13.890625 
Q 24.171875 6.390625 31.78125 6.390625 
Q 39.453125 6.390625 43.28125 13.890625 
Q 47.125 21.390625 47.125 36.375 
Q 47.125 51.421875 43.28125 58.90625 
Q 39.453125 66.40625 31.78125 66.40625 
z
M 31.78125 74.21875 
Q 44.046875 74.21875 50.515625 64.515625 
Q 56.984375 54.828125 56.984375 36.375 
Q 56.984375 17.96875 50.515625 8.265625 
Q 44.046875 -1.421875 31.78125 -1.421875 
Q 19.53125 -1.421875 13.0625 8.265625 
Q 6.59375 17.96875 6.59375 36.375 
Q 6.59375 54.828125 13.0625 64.515625 
Q 19.53125 74.21875 31.78125 74.21875 
z
" id="DejaVuSans-48"/>
      </defs>
      <g transform="translate(131.275 270.918437)scale(0.1 -0.1)">
       <use xlink:href="#DejaVuSans-50"/>
       <use x="63.623047" xlink:href="#DejaVuSans-56"/>
       <use x="127.246094" xlink:href="#DejaVuSans-48"/>
       <use x="190.869141" xlink:href="#DejaVuSans-48"/>
      </g>
     </g>
    </g>
    <g id="xtick_2">
     <g id="line2d_2">
      <g>
       <use style="stroke:#000000;stroke-width:0.8;" x="322.56" xlink:href="#m435e50866d" y="256.32"/>
      </g>
     </g>
     <g id="text_2">
      <!-- 3000 -->
      <defs>
       <path d="M 40.578125 39.3125 
Q 47.65625 37.796875 51.625 33 
Q 55.609375 28.21875 55.609375 21.1875 
Q 55.609375 10.40625 48.1875 4.484375 
Q 40.765625 -1.421875 27.09375 -1.421875 
Q 22.515625 -1.421875 17.65625 -0.515625 
Q 12.796875 0.390625 7.625 2.203125 
L 7.625 11.71875 
Q 11.71875 9.328125 16.59375 8.109375 
Q 21.484375 6.890625 26.8125 6.890625 
Q 36.078125 6.890625 40.9375 10.546875 
Q 45.796875 14.203125 45.796875 21.1875 
Q 45.796875 27.640625 41.28125 31.265625 
Q 36.765625 34.90625 28.71875 34.90625 
L 20.21875 34.90625 
L 20.21875 43.015625 
L 29.109375 43.015625 
Q 36.375 43.015625 40.234375 45.921875 
Q 44.09375 48.828125 44.09375 54.296875 
Q 44.09375 59.90625 40.109375 62.90625 
Q 36.140625 65.921875 28.71875 65.921875 
Q 24.65625 65.921875 20.015625 65.03125 
Q 15.375 64.15625 9.8125 62.3125 
L 9.8125 71.09375 
Q 15.4375 72.65625 20.34375 73.4375 
Q 25.25 74.21875 29.59375 74.21875 
Q 40.828125 74.21875 47.359375 69.109375 
Q 53.90625 64.015625 53.90625 55.328125 
Q 53.90625 49.265625 50.4375 45.09375 
Q 46.96875 40.921875 40.578125 39.3125 
z
" id="DejaVuSans-51"/>
      </defs>
      <g transform="translate(309.835 270.918437)scale(0.1 -0.1)">
       <use xlink:href="#DejaVuSans-51"/>
       <use x="63.623047" xlink:href="#DejaVuSans-48"/>
       <use x="127.246094" xlink:href="#DejaVuSans-48"/>
       <use x="190.869141" xlink:href="#DejaVuSans-48"/>
      </g>
     </g>
    </g>
    <g id="xtick_3">
     <g id="line2d_3">
      <g>
       <use style="stroke:#000000;stroke-width:0.8;" x="501.12" xlink:href="#m435e50866d" y="256.32"/>
      </g>
     </g>
     <g id="text_3">
      <!-- 3200 -->
      <g transform="translate(488.395 270.918437)scale(0.1 -0.1)">
       <use xlink:href="#DejaVuSans-51"/>
       <use x="63.623047" xlink:href="#DejaVuSans-50"/>
       <use x="127.246094" xlink:href="#DejaVuSans-48"/>
       <use x="190.869141" xlink:href="#DejaVuSans-48"/>
      </g>
     </g>
    </g>
    <g id="xtick_4">
     <g id="line2d_4">
      <g>
       <use style="stroke:#000000;stroke-width:0.8;" x="679.68" xlink:href="#m435e50866d" y="256.32"/>
      </g>
     </g>
     <g id="text_4">
      <!-- 3400 -->
      <defs>
       <path d="M 37.796875 64.3125 
L 12.890625 25.390625 
L 37.796875 25.390625 
z
M 35.203125 72.90625 
L 47.609375 72.90625 
L 47.609375 25.390625 
L 58.015625 25.390625 
L 58.015625 17.1875 
L 47.609375 17.1875 
L 47.609375 0 
L 37.796875 0 
L 37.796875 17.1875 
L 4.890625 17.1875 
L 4.890625 26.703125 
z
" id="DejaVuSans-52"/>
      </defs>
      <g transform="translate(666.955 270.918437)scale(0.1 -0.1)">
       <use xlink:href="#DejaVuSans-51"/>
       <use x="63.623047" xlink:href="#DejaVuSans-52"/>
       <use x="127.246094" xlink:href="#DejaVuSans-48"/>
       <use x="190.869141" xlink:href="#DejaVuSans-48"/>
      </g>
     </g>
    </g>
    <g id="xtick_5">
     <g id="line2d_5">
      <g>
       <use style="stroke:#000000;stroke-width:0.8;" x="858.24" xlink:href="#m435e50866d" y="256.32"/>
      </g>
     </g>
     <g id="text_5">
      <!-- 3600 -->
      <defs>
       <path d="M 33.015625 40.375 
Q 26.375 40.375 22.484375 35.828125 
Q 18.609375 31.296875 18.609375 23.390625 
Q 18.609375 15.53125 22.484375 10.953125 
Q 26.375 6.390625 33.015625 6.390625 
Q 39.65625 6.390625 43.53125 10.953125 
Q 47.40625 15.53125 47.40625 23.390625 
Q 47.40625 31.296875 43.53125 35.828125 
Q 39.65625 40.375 33.015625 40.375 
z
M 52.59375 71.296875 
L 52.59375 62.3125 
Q 48.875 64.0625 45.09375 64.984375 
Q 41.3125 65.921875 37.59375 65.921875 
Q 27.828125 65.921875 22.671875 59.328125 
Q 17.53125 52.734375 16.796875 39.40625 
Q 19.671875 43.65625 24.015625 45.921875 
Q 28.375 48.1875 33.59375 48.1875 
Q 44.578125 48.1875 50.953125 41.515625 
Q 57.328125 34.859375 57.328125 23.390625 
Q 57.328125 12.15625 50.6875 5.359375 
Q 44.046875 -1.421875 33.015625 -1.421875 
Q 20.359375 -1.421875 13.671875 8.265625 
Q 6.984375 17.96875 6.984375 36.375 
Q 6.984375 53.65625 15.1875 63.9375 
Q 23.390625 74.21875 37.203125 74.21875 
Q 40.921875 74.21875 44.703125 73.484375 
Q 48.484375 72.75 52.59375 71.296875 
z
" id="DejaVuSans-54"/>
      </defs>
      <g transform="translate(845.515 270.918437)scale(0.1 -0.1)">
       <use xlink:href="#DejaVuSans-51"/>
       <use x="63.623047" xlink:href="#DejaVuSans-54"/>
       <use x="127.246094" xlink:href="#DejaVuSans-48"/>
       <use x="190.869141" xlink:href="#DejaVuSans-48"/>
      </g>
     </g>
    </g>
    <g id="xtick_6">
     <g id="line2d_6">
      <g>
       <use style="stroke:#000000;stroke-width:0.8;" x="1036.8" xlink:href="#m435e50866d" y="256.32"/>
      </g>
     </g>
     <g id="text_6">
      <!-- 3800 -->
      <g transform="translate(1024.075 270.918437)scale(0.1 -0.1)">
       <use xlink:href="#DejaVuSans-51"/>
       <use x="63.623047" xlink:href="#DejaVuSans-56"/>
       <use x="127.246094" xlink:href="#DejaVuSans-48"/>
       <use x="190.869141" xlink:href="#DejaVuSans-48"/>
      </g>
     </g>
    </g>
   </g>
   <g id="matplotlib.axis_2">
    <g id="ytick_1">
     <g id="line2d_7">
      <defs>
       <path d="M 0 0 
L -3.5 0 
" id="m01f6f6aa5b" style="stroke:#000000;stroke-width:0.8;"/>
      </defs>
      <g>
       <use style="stroke:#000000;stroke-width:0.8;" x="144" xlink:href="#m01f6f6aa5b" y="249.700299"/>
      </g>
     </g>
     <g id="text_7">
      <!-- −80 -->
      <defs>
       <path d="M 10.59375 35.5 
L 73.1875 35.5 
L 73.1875 27.203125 
L 10.59375 27.203125 
z
" id="DejaVuSans-8722"/>
      </defs>
      <g transform="translate(115.895313 253.499517)scale(0.1 -0.1)">
       <use xlink:href="#DejaVuSans-8722"/>
       <use x="83.789062" xlink:href="#DejaVuSans-56"/>
       <use x="147.412109" xlink:href="#DejaVuSans-48"/>
      </g>
     </g>
    </g>
    <g id="ytick_2">
     <g id="line2d_8">
      <g>
       <use style="stroke:#000000;stroke-width:0.8;" x="144" xlink:href="#m01f6f6aa5b" y="216.601791"/>
      </g>
     </g>
     <g id="text_8">
      <!-- −60 -->
      <g transform="translate(115.895313 220.40101)scale(0.1 -0.1)">
       <use xlink:href="#DejaVuSans-8722"/>
       <use x="83.789062" xlink:href="#DejaVuSans-54"/>
       <use x="147.412109" xlink:href="#DejaVuSans-48"/>
      </g>
     </g>
    </g>
    <g id="ytick_3">
     <g id="line2d_9">
      <g>
       <use style="stroke:#000000;stroke-width:0.8;" x="144" xlink:href="#m01f6f6aa5b" y="183.503284"/>
      </g>
     </g>
     <g id="text_9">
      <!-- −40 -->
      <g transform="translate(115.895313 187.302502)scale(0.1 -0.1)">
       <use xlink:href="#DejaVuSans-8722"/>
       <use x="83.789062" xlink:href="#DejaVuSans-52"/>
       <use x="147.412109" xlink:href="#DejaVuSans-48"/>
      </g>
     </g>
    </g>
    <g id="ytick_4">
     <g id="line2d_10">
      <g>
       <use style="stroke:#000000;stroke-width:0.8;" x="144" xlink:href="#m01f6f6aa5b" y="150.404776"/>
      </g>
     </g>
     <g id="text_10">
      <!-- −20 -->
      <g transform="translate(115.895313 154.203995)scale(0.1 -0.1)">
       <use xlink:href="#DejaVuSans-8722"/>
       <use x="83.789062" xlink:href="#DejaVuSans-50"/>
       <use x="147.412109" xlink:href="#DejaVuSans-48"/>
      </g>
     </g>
    </g>
    <g id="ytick_5">
     <g id="line2d_11">
      <g>
       <use style="stroke:#000000;stroke-width:0.8;" x="144" xlink:href="#m01f6f6aa5b" y="117.306269"/>
      </g>
     </g>
     <g id="text_11">
      <!-- 0 -->
      <g transform="translate(130.6375 121.105487)scale(0.1 -0.1)">
       <use xlink:href="#DejaVuSans-48"/>
      </g>
     </g>
    </g>
    <g id="ytick_6">
     <g id="line2d_12">
      <g>
       <use style="stroke:#000000;stroke-width:0.8;" x="144" xlink:href="#m01f6f6aa5b" y="84.207761"/>
      </g>
     </g>
     <g id="text_12">
      <!-- 20 -->
      <g transform="translate(124.275 88.00698)scale(0.1 -0.1)">
       <use xlink:href="#DejaVuSans-50"/>
       <use x="63.623047" xlink:href="#DejaVuSans-48"/>
      </g>
     </g>
    </g>
    <g id="ytick_7">
     <g id="line2d_13">
      <g>
       <use style="stroke:#000000;stroke-width:0.8;" x="144" xlink:href="#m01f6f6aa5b" y="51.109254"/>
      </g>
     </g>
     <g id="text_13">
      <!-- 40 -->
      <g transform="translate(124.275 54.908472)scale(0.1 -0.1)">
       <use xlink:href="#DejaVuSans-52"/>
       <use x="63.623047" xlink:href="#DejaVuSans-48"/>
      </g>
     </g>
    </g>
   </g>
   <g id="line2d_14">
    <path clip-path="url(#pc009a7f92c)" d="M 143.1072 244.947469 
L 331.488 244.874156 
L 335.952 244.603385 
L 338.6304 244.268009 
L 341.3088 243.714056 
L 343.9872 242.870602 
L 346.6656 241.712683 
L 349.344 240.24479 
L 352.0224 238.485067 
L 354.7008 236.467659 
L 358.272 233.440012 
L 363.6288 228.473297 
L 368.0928 224.451629 
L 371.664 221.519861 
L 376.128 218.144452 
L 384.1632 212.176813 
L 386.8416 209.92871 
L 388.6272 208.222333 
L 390.4128 206.199131 
L 391.3056 204.983211 
L 392.1984 203.540714 
L 393.0912 201.736828 
L 393.984 199.302431 
L 394.8768 195.612175 
L 395.7696 188.850487 
L 396.6624 171.746898 
L 398.448 57.599182 
L 399.3408 71.362331 
L 400.2336 96.860315 
L 401.1264 116.075709 
L 402.0192 129.261554 
L 402.912 139.653022 
L 404.6976 156.857457 
L 408.2688 188.81972 
L 410.0544 205.100853 
L 410.9472 211.427324 
L 411.84 216.007639 
L 412.7328 219.17927 
L 413.6256 221.409106 
L 414.5184 223.016522 
L 415.4112 224.187762 
L 416.304 225.037736 
L 417.1968 225.644509 
L 418.0896 226.064462 
L 419.8752 226.500845 
L 421.6608 226.571878 
L 423.4464 226.406803 
L 426.1248 225.876112 
L 429.696 224.850268 
L 434.16 223.299051 
L 460.0512 213.838697 
L 471.6576 209.798786 
L 476.1216 208.000957 
L 478.8 206.734266 
L 481.4784 205.200233 
L 483.264 203.920492 
L 485.0496 202.274353 
L 485.9424 201.225793 
L 486.8352 199.936355 
L 487.728 198.27495 
L 488.6208 195.989648 
L 489.5136 192.528583 
L 490.4064 186.441482 
L 491.2992 172.878199 
L 492.192 134.070287 
L 493.0848 77.805031 
L 493.9776 81.906727 
L 494.8704 104.563286 
L 495.7632 122.785628 
L 496.656 135.86873 
L 497.5488 146.14044 
L 499.3344 162.678662 
L 502.0128 183.825559 
L 503.7984 196.71402 
L 504.6912 202.4262 
L 505.584 207.289758 
L 506.4768 211.159706 
L 507.3696 214.132121 
L 508.2624 216.415782 
L 509.1552 218.193889 
L 510.048 219.591257 
L 510.9408 220.691083 
L 511.8336 221.552968 
L 512.7264 222.222789 
L 514.512 223.125956 
L 516.2976 223.617535 
L 518.0832 223.838174 
L 520.7616 223.849528 
L 524.3328 223.523929 
L 529.6896 222.706279 
L 544.8672 220.213055 
L 552.0096 219.333044 
L 559.152 218.697416 
L 566.2944 218.294857 
L 573.4368 218.102465 
L 581.472 218.104443 
L 590.4 218.334556 
L 600.2208 218.811963 
L 611.8272 219.612348 
L 625.2192 220.778453 
L 639.504 222.246145 
L 655.5744 224.121684 
L 675.216 226.653189 
L 739.4976 235.142682 
L 760.032 237.518126 
L 780.5664 239.665439 
L 801.1008 241.588324 
L 822.528 243.366241 
L 843.9552 244.923529 
L 866.2752 246.325379 
L 889.488 247.560853 
L 913.5936 248.622173 
L 939.4848 249.533112 
L 966.2688 250.252268 
L 995.7312 250.814512 
L 1027.872 251.196377 
L 1037.6928 251.271638 
L 1037.6928 251.271638 
" style="fill:none;stroke:#000000;stroke-linecap:square;stroke-width:1.5;"/>
   </g>
   <g id="line2d_15">
    <path clip-path="url(#pc009a7f92c)" d="M 143.1072 236.318176 
L 322.56 236.322038 
L 323.4528 232.221754 
L 324.3456 225.583757 
L 331.488 165.69879 
L 332.3808 155.990271 
L 334.1664 131.034171 
L 335.952 106.510155 
L 336.8448 96.711736 
L 337.7376 88.508059 
L 338.6304 81.650419 
L 339.5232 75.904143 
L 340.416 71.0613 
L 341.3088 66.948315 
L 342.2016 63.428704 
L 343.0944 60.396423 
L 344.88 55.457796 
L 346.6656 51.569564 
L 348.4512 48.35804 
L 350.2368 45.634385 
L 352.0224 43.319794 
L 353.808 41.372819 
L 355.5936 39.755552 
L 357.3792 38.443633 
L 359.1648 37.437164 
L 360.9504 36.748422 
L 362.736 36.387785 
L 364.5216 36.360641 
L 366.3072 36.666763 
L 368.0928 37.297313 
L 369.8784 38.23327 
L 371.664 39.446931 
L 373.4496 40.905005 
L 376.128 43.47228 
L 378.8064 46.391152 
L 382.3776 50.648348 
L 388.6272 58.559988 
L 396.6624 68.672142 
L 400.2336 72.83344 
L 402.912 75.527149 
L 405.5904 77.855532 
L 416.304 86.665614 
L 421.6608 91.577485 
L 430.5888 99.802748 
L 435.9456 104.410586 
L 440.4096 107.98277 
L 444.8736 111.3014 
L 449.3376 114.375178 
L 454.6944 117.76647 
L 460.0512 120.870889 
L 465.408 123.729358 
L 471.6576 126.803721 
L 477.9072 129.645049 
L 485.0496 132.651272 
L 491.2992 135.073743 
L 494.8704 136.266945 
L 497.5488 136.853043 
L 500.2272 137.167462 
L 506.4768 137.797934 
L 509.1552 138.300734 
L 511.8336 138.994377 
L 515.4048 140.181002 
L 519.8688 141.968067 
L 526.1184 144.778796 
L 551.1168 156.322277 
L 563.616 161.704941 
L 598.4352 176.490283 
L 606.4704 180.231316 
L 613.6128 183.797397 
L 619.8624 187.147834 
L 626.112 190.730665 
L 633.2544 195.083106 
L 644.8608 202.478231 
L 655.5744 209.202923 
L 662.7168 213.419633 
L 668.9664 216.848351 
L 674.3232 219.557067 
L 679.68 222.034478 
L 685.0368 224.274657 
L 690.3936 226.282924 
L 695.7504 228.073774 
L 702 229.91585 
L 708.2496 231.526974 
L 715.392 233.132449 
L 723.4272 234.696151 
L 732.3552 236.199006 
L 743.0688 237.756028 
L 754.6752 239.215594 
L 768.0672 240.676366 
L 783.2448 242.100429 
L 799.3152 243.380093 
L 816.2784 244.503557 
L 834.1344 245.456435 
L 852.8832 246.226644 
L 872.5248 246.807337 
L 893.952 247.210794 
L 917.1648 247.41959 
L 943.056 247.426781 
L 973.4112 247.205913 
L 1010.9088 246.699429 
L 1037.6928 246.23752 
L 1037.6928 246.23752 
" style="fill:none;stroke:#ff0000;stroke-linecap:square;stroke-width:1.5;"/>
   </g>
   <g id="line2d_16">
    <path clip-path="url(#pc009a7f92c)" d="M 143.1072 239.998482 
L 323.4528 239.918889 
L 324.3456 239.625321 
L 325.2384 239.029498 
L 326.1312 238.096075 
L 327.024 236.835727 
L 327.9168 235.285942 
L 329.7024 231.506663 
L 331.488 227.012994 
L 332.3808 224.432911 
L 333.2736 221.475047 
L 334.1664 217.952197 
L 335.0592 213.680995 
L 335.952 208.55552 
L 336.8448 202.552168 
L 338.6304 188.000471 
L 342.2016 155.206504 
L 343.0944 149.075513 
L 343.9872 144.135668 
L 344.88 140.050879 
L 345.7728 136.581977 
L 346.6656 133.621979 
L 347.5584 131.112422 
L 348.4512 128.982925 
L 350.2368 125.562742 
L 352.0224 122.844831 
L 355.5936 117.969039 
L 357.3792 115.778821 
L 359.1648 113.946069 
L 360.9504 112.48808 
L 362.736 111.420663 
L 364.5216 110.781254 
L 366.3072 110.560593 
L 368.0928 110.698636 
L 369.8784 111.117821 
L 371.664 111.743705 
L 374.3424 112.935686 
L 378.8064 115.246691 
L 388.6272 120.408181 
L 394.8768 123.490316 
L 396.6624 124.245896 
L 397.5552 124.499132 
L 398.448 124.545004 
L 399.3408 124.332445 
L 401.1264 123.351479 
L 402.912 122.250003 
L 404.6976 121.47742 
L 406.4832 121.140911 
L 408.2688 121.227397 
L 410.0544 121.715268 
L 411.84 122.577773 
L 413.6256 123.748341 
L 416.304 125.871527 
L 423.4464 132.118813 
L 427.9104 135.853352 
L 432.3744 139.291754 
L 436.8384 142.403517 
L 441.3024 145.192102 
L 445.7664 147.678124 
L 450.2304 149.890442 
L 454.6944 151.860665 
L 460.0512 153.948683 
L 465.408 155.780114 
L 470.7648 157.393518 
L 477.0144 159.034776 
L 483.264 160.424039 
L 487.728 161.222362 
L 490.4064 161.555086 
L 492.192 161.576156 
L 493.0848 161.380162 
L 493.9776 160.962847 
L 495.7632 159.594778 
L 498.4416 157.363845 
L 500.2272 156.302501 
L 502.0128 155.670151 
L 503.7984 155.437058 
L 505.584 155.558466 
L 507.3696 155.97809 
L 509.1552 156.624809 
L 511.8336 157.866015 
L 516.2976 160.251164 
L 525.2256 165.050903 
L 531.4752 168.122682 
L 537.7248 170.937478 
L 544.8672 173.892668 
L 552.9024 176.967989 
L 563.616 180.80254 
L 579.6864 186.275317 
L 613.6128 197.776744 
L 626.112 202.282673 
L 638.6112 207.034089 
L 665.3952 217.318418 
L 674.3232 220.465027 
L 682.3584 223.076325 
L 690.3936 225.449083 
L 698.4288 227.576807 
L 706.464 229.472037 
L 715.392 231.335223 
L 725.2128 233.135811 
L 735.9264 234.859822 
L 747.5328 236.504653 
L 760.9248 238.177447 
L 776.1024 239.841823 
L 792.1728 241.382556 
L 810.0288 242.862846 
L 828.7776 244.181597 
L 848.4192 245.327766 
L 868.9536 246.292343 
L 890.3808 247.070612 
L 913.5936 247.682696 
L 938.592 248.11198 
L 966.2688 248.357523 
L 997.5168 248.405615 
L 1034.1216 248.233053 
L 1037.6928 248.205958 
L 1037.6928 248.205958 
" style="fill:none;stroke:#00bfbf;stroke-linecap:square;stroke-width:1.5;"/>
   </g>
   <g id="patch_3">
    <path d="M 144 256.32 
L 144 34.56 
" style="fill:none;stroke:#000000;stroke-linecap:square;stroke-linejoin:miter;stroke-width:0.8;"/>
   </g>
   <g id="patch_4">
    <path d="M 1036.8 256.32 
L 1036.8 34.56 
" style="fill:none;stroke:#000000;stroke-linecap:square;stroke-linejoin:miter;stroke-width:0.8;"/>
   </g>
   <g id="patch_5">
    <path d="M 144 256.32 
L 1036.8 256.32 
" style="fill:none;stroke:#000000;stroke-linecap:square;stroke-linejoin:miter;stroke-width:0.8;"/>
   </g>
   <g id="patch_6">
    <path d="M 144 34.56 
L 1036.8 34.56 
" style="fill:none;stroke:#000000;stroke-linecap:square;stroke-linejoin:miter;stroke-width:0.8;"/>
   </g>
  </g>
 </g>
 <defs>
  <clipPath id="pc009a7f92c">
   <rect height="221.76" width="892.8" x="144" y="34.56"/>
  </clipPath>
 </defs>
</svg>
