<?xml version="1.0" encoding="utf-8" standalone="no"?>
<!DOCTYPE svg PUBLIC "-//W3C//DTD SVG 1.1//EN"
  "http://www.w3.org/Graphics/SVG/1.1/DTD/svg11.dtd">
<!-- Created with matplotlib (https://matplotlib.org/) -->
<svg height="345.6pt" version="1.1" viewBox="0 0 460.8 345.6" width="460.8pt" xmlns="http://www.w3.org/2000/svg" xmlns:xlink="http://www.w3.org/1999/xlink">
 <defs>
  <style type="text/css">
*{stroke-linecap:butt;stroke-linejoin:round;}
  </style>
 </defs>
 <g id="figure_1">
  <g id="patch_1">
   <path d="M 0 345.6 
L 460.8 345.6 
L 460.8 0 
L 0 0 
z
" style="fill:#ffffff;"/>
  </g>
  <g id="axes_1">
   <g id="patch_2">
    <path d="M 57.6 307.584 
L 414.72 307.584 
L 414.72 41.472 
L 57.6 41.472 
z
" style="fill:#ffffff;"/>
   </g>
   <g id="matplotlib.axis_1">
    <g id="xtick_1">
     <g id="line2d_1">
      <defs>
       <path d="M 0 0 
L 0 3.5 
" id="mcc3b9cb676" style="stroke:#000000;stroke-width:0.8;"/>
      </defs>
      <g>
       <use style="stroke:#000000;stroke-width:0.8;" x="73.832727" xlink:href="#mcc3b9cb676" y="307.584"/>
      </g>
     </g>
     <g id="text_1">
      <!-- 0 -->
      <defs>
       <path d="M 31.78125 66.40625 
Q 24.171875 66.40625 20.328125 58.90625 
Q 16.5 51.421875 16.5 36.375 
Q 16.5 21.390625 20.328125 13.890625 
Q 24.171875 6.390625 31.78125 6.390625 
Q 39.453125 6.390625 43.28125 13.890625 
Q 47.125 21.390625 47.125 36.375 
Q 47.125 51.421875 43.28125 58.90625 
Q 39.453125 66.40625 31.78125 66.40625 
z
M 31.78125 74.21875 
Q 44.046875 74.21875 50.515625 64.515625 
Q 56.984375 54.828125 56.984375 36.375 
Q 56.984375 17.96875 50.515625 8.265625 
Q 44.046875 -1.421875 31.78125 -1.421875 
Q 19.53125 -1.421875 13.0625 8.265625 
Q 6.59375 17.96875 6.59375 36.375 
Q 6.59375 54.828125 13.0625 64.515625 
Q 19.53125 74.21875 31.78125 74.21875 
z
" id="DejaVuSans-48"/>
      </defs>
      <g transform="translate(70.651477 322.182437)scale(0.1 -0.1)">
       <use xlink:href="#DejaVuSans-48"/>
      </g>
     </g>
    </g>
    <g id="xtick_2">
     <g id="line2d_2">
      <g>
       <use style="stroke:#000000;stroke-width:0.8;" x="127.943622" xlink:href="#mcc3b9cb676" y="307.584"/>
      </g>
     </g>
     <g id="text_2">
      <!-- 5000 -->
      <defs>
       <path d="M 10.796875 72.90625 
L 49.515625 72.90625 
L 49.515625 64.59375 
L 19.828125 64.59375 
L 19.828125 46.734375 
Q 21.96875 47.46875 24.109375 47.828125 
Q 26.265625 48.1875 28.421875 48.1875 
Q 40.625 48.1875 47.75 41.5 
Q 54.890625 34.8125 54.890625 23.390625 
Q 54.890625 11.625 47.5625 5.09375 
Q 40.234375 -1.421875 26.90625 -1.421875 
Q 22.3125 -1.421875 17.546875 -0.640625 
Q 12.796875 0.140625 7.71875 1.703125 
L 7.71875 11.625 
Q 12.109375 9.234375 16.796875 8.0625 
Q 21.484375 6.890625 26.703125 6.890625 
Q 35.15625 6.890625 40.078125 11.328125 
Q 45.015625 15.765625 45.015625 23.390625 
Q 45.015625 31 40.078125 35.4375 
Q 35.15625 39.890625 26.703125 39.890625 
Q 22.75 39.890625 18.8125 39.015625 
Q 14.890625 38.140625 10.796875 36.28125 
z
" id="DejaVuSans-53"/>
      </defs>
      <g transform="translate(115.218622 322.182437)scale(0.1 -0.1)">
       <use xlink:href="#DejaVuSans-53"/>
       <use x="63.623047" xlink:href="#DejaVuSans-48"/>
       <use x="127.246094" xlink:href="#DejaVuSans-48"/>
       <use x="190.869141" xlink:href="#DejaVuSans-48"/>
      </g>
     </g>
    </g>
    <g id="xtick_3">
     <g id="line2d_3">
      <g>
       <use style="stroke:#000000;stroke-width:0.8;" x="182.054516" xlink:href="#mcc3b9cb676" y="307.584"/>
      </g>
     </g>
     <g id="text_3">
      <!-- 10000 -->
      <defs>
       <path d="M 12.40625 8.296875 
L 28.515625 8.296875 
L 28.515625 63.921875 
L 10.984375 60.40625 
L 10.984375 69.390625 
L 28.421875 72.90625 
L 38.28125 72.90625 
L 38.28125 8.296875 
L 54.390625 8.296875 
L 54.390625 0 
L 12.40625 0 
z
" id="DejaVuSans-49"/>
      </defs>
      <g transform="translate(166.148266 322.182437)scale(0.1 -0.1)">
       <use xlink:href="#DejaVuSans-49"/>
       <use x="63.623047" xlink:href="#DejaVuSans-48"/>
       <use x="127.246094" xlink:href="#DejaVuSans-48"/>
       <use x="190.869141" xlink:href="#DejaVuSans-48"/>
       <use x="254.492188" xlink:href="#DejaVuSans-48"/>
      </g>
     </g>
    </g>
    <g id="xtick_4">
     <g id="line2d_4">
      <g>
       <use style="stroke:#000000;stroke-width:0.8;" x="236.165411" xlink:href="#mcc3b9cb676" y="307.584"/>
      </g>
     </g>
     <g id="text_4">
      <!-- 15000 -->
      <g transform="translate(220.259161 322.182437)scale(0.1 -0.1)">
       <use xlink:href="#DejaVuSans-49"/>
       <use x="63.623047" xlink:href="#DejaVuSans-53"/>
       <use x="127.246094" xlink:href="#DejaVuSans-48"/>
       <use x="190.869141" xlink:href="#DejaVuSans-48"/>
       <use x="254.492188" xlink:href="#DejaVuSans-48"/>
      </g>
     </g>
    </g>
    <g id="xtick_5">
     <g id="line2d_5">
      <g>
       <use style="stroke:#000000;stroke-width:0.8;" x="290.276306" xlink:href="#mcc3b9cb676" y="307.584"/>
      </g>
     </g>
     <g id="text_5">
      <!-- 20000 -->
      <defs>
       <path d="M 19.1875 8.296875 
L 53.609375 8.296875 
L 53.609375 0 
L 7.328125 0 
L 7.328125 8.296875 
Q 12.9375 14.109375 22.625 23.890625 
Q 32.328125 33.6875 34.8125 36.53125 
Q 39.546875 41.84375 41.421875 45.53125 
Q 43.3125 49.21875 43.3125 52.78125 
Q 43.3125 58.59375 39.234375 62.25 
Q 35.15625 65.921875 28.609375 65.921875 
Q 23.96875 65.921875 18.8125 64.3125 
Q 13.671875 62.703125 7.8125 59.421875 
L 7.8125 69.390625 
Q 13.765625 71.78125 18.9375 73 
Q 24.125 74.21875 28.421875 74.21875 
Q 39.75 74.21875 46.484375 68.546875 
Q 53.21875 62.890625 53.21875 53.421875 
Q 53.21875 48.921875 51.53125 44.890625 
Q 49.859375 40.875 45.40625 35.40625 
Q 44.1875 33.984375 37.640625 27.21875 
Q 31.109375 20.453125 19.1875 8.296875 
z
" id="DejaVuSans-50"/>
      </defs>
      <g transform="translate(274.370056 322.182437)scale(0.1 -0.1)">
       <use xlink:href="#DejaVuSans-50"/>
       <use x="63.623047" xlink:href="#DejaVuSans-48"/>
       <use x="127.246094" xlink:href="#DejaVuSans-48"/>
       <use x="190.869141" xlink:href="#DejaVuSans-48"/>
       <use x="254.492188" xlink:href="#DejaVuSans-48"/>
      </g>
     </g>
    </g>
    <g id="xtick_6">
     <g id="line2d_6">
      <g>
       <use style="stroke:#000000;stroke-width:0.8;" x="344.3872" xlink:href="#mcc3b9cb676" y="307.584"/>
      </g>
     </g>
     <g id="text_6">
      <!-- 25000 -->
      <g transform="translate(328.48095 322.182437)scale(0.1 -0.1)">
       <use xlink:href="#DejaVuSans-50"/>
       <use x="63.623047" xlink:href="#DejaVuSans-53"/>
       <use x="127.246094" xlink:href="#DejaVuSans-48"/>
       <use x="190.869141" xlink:href="#DejaVuSans-48"/>
       <use x="254.492188" xlink:href="#DejaVuSans-48"/>
      </g>
     </g>
    </g>
    <g id="xtick_7">
     <g id="line2d_7">
      <g>
       <use style="stroke:#000000;stroke-width:0.8;" x="398.498095" xlink:href="#mcc3b9cb676" y="307.584"/>
      </g>
     </g>
     <g id="text_7">
      <!-- 30000 -->
      <defs>
       <path d="M 40.578125 39.3125 
Q 47.65625 37.796875 51.625 33 
Q 55.609375 28.21875 55.609375 21.1875 
Q 55.609375 10.40625 48.1875 4.484375 
Q 40.765625 -1.421875 27.09375 -1.421875 
Q 22.515625 -1.421875 17.65625 -0.515625 
Q 12.796875 0.390625 7.625 2.203125 
L 7.625 11.71875 
Q 11.71875 9.328125 16.59375 8.109375 
Q 21.484375 6.890625 26.8125 6.890625 
Q 36.078125 6.890625 40.9375 10.546875 
Q 45.796875 14.203125 45.796875 21.1875 
Q 45.796875 27.640625 41.28125 31.265625 
Q 36.765625 34.90625 28.71875 34.90625 
L 20.21875 34.90625 
L 20.21875 43.015625 
L 29.109375 43.015625 
Q 36.375 43.015625 40.234375 45.921875 
Q 44.09375 48.828125 44.09375 54.296875 
Q 44.09375 59.90625 40.109375 62.90625 
Q 36.140625 65.921875 28.71875 65.921875 
Q 24.65625 65.921875 20.015625 65.03125 
Q 15.375 64.15625 9.8125 62.3125 
L 9.8125 71.09375 
Q 15.4375 72.65625 20.34375 73.4375 
Q 25.25 74.21875 29.59375 74.21875 
Q 40.828125 74.21875 47.359375 69.109375 
Q 53.90625 64.015625 53.90625 55.328125 
Q 53.90625 49.265625 50.4375 45.09375 
Q 46.96875 40.921875 40.578125 39.3125 
z
" id="DejaVuSans-51"/>
      </defs>
      <g transform="translate(382.591845 322.182437)scale(0.1 -0.1)">
       <use xlink:href="#DejaVuSans-51"/>
       <use x="63.623047" xlink:href="#DejaVuSans-48"/>
       <use x="127.246094" xlink:href="#DejaVuSans-48"/>
       <use x="190.869141" xlink:href="#DejaVuSans-48"/>
       <use x="254.492188" xlink:href="#DejaVuSans-48"/>
      </g>
     </g>
    </g>
   </g>
   <g id="matplotlib.axis_2">
    <g id="ytick_1">
     <g id="line2d_8">
      <defs>
       <path d="M 0 0 
L -3.5 0 
" id="md292a71851" style="stroke:#000000;stroke-width:0.8;"/>
      </defs>
      <g>
       <use style="stroke:#000000;stroke-width:0.8;" x="57.6" xlink:href="#md292a71851" y="291.758505"/>
      </g>
     </g>
     <g id="text_8">
      <!-- −80 -->
      <defs>
       <path d="M 10.59375 35.5 
L 73.1875 35.5 
L 73.1875 27.203125 
L 10.59375 27.203125 
z
" id="DejaVuSans-8722"/>
       <path d="M 31.78125 34.625 
Q 24.75 34.625 20.71875 30.859375 
Q 16.703125 27.09375 16.703125 20.515625 
Q 16.703125 13.921875 20.71875 10.15625 
Q 24.75 6.390625 31.78125 6.390625 
Q 38.8125 6.390625 42.859375 10.171875 
Q 46.921875 13.96875 46.921875 20.515625 
Q 46.921875 27.09375 42.890625 30.859375 
Q 38.875 34.625 31.78125 34.625 
z
M 21.921875 38.8125 
Q 15.578125 40.375 12.03125 44.71875 
Q 8.5 49.078125 8.5 55.328125 
Q 8.5 64.0625 14.71875 69.140625 
Q 20.953125 74.21875 31.78125 74.21875 
Q 42.671875 74.21875 48.875 69.140625 
Q 55.078125 64.0625 55.078125 55.328125 
Q 55.078125 49.078125 51.53125 44.71875 
Q 48 40.375 41.703125 38.8125 
Q 48.828125 37.15625 52.796875 32.3125 
Q 56.78125 27.484375 56.78125 20.515625 
Q 56.78125 9.90625 50.3125 4.234375 
Q 43.84375 -1.421875 31.78125 -1.421875 
Q 19.734375 -1.421875 13.25 4.234375 
Q 6.78125 9.90625 6.78125 20.515625 
Q 6.78125 27.484375 10.78125 32.3125 
Q 14.796875 37.15625 21.921875 38.8125 
z
M 18.3125 54.390625 
Q 18.3125 48.734375 21.84375 45.5625 
Q 25.390625 42.390625 31.78125 42.390625 
Q 38.140625 42.390625 41.71875 45.5625 
Q 45.3125 48.734375 45.3125 54.390625 
Q 45.3125 60.0625 41.71875 63.234375 
Q 38.140625 66.40625 31.78125 66.40625 
Q 25.390625 66.40625 21.84375 63.234375 
Q 18.3125 60.0625 18.3125 54.390625 
z
" id="DejaVuSans-56"/>
      </defs>
      <g transform="translate(29.495313 295.557724)scale(0.1 -0.1)">
       <use xlink:href="#DejaVuSans-8722"/>
       <use x="83.789062" xlink:href="#DejaVuSans-56"/>
       <use x="147.412109" xlink:href="#DejaVuSans-48"/>
      </g>
     </g>
    </g>
    <g id="ytick_2">
     <g id="line2d_9">
      <g>
       <use style="stroke:#000000;stroke-width:0.8;" x="57.6" xlink:href="#md292a71851" y="247.266384"/>
      </g>
     </g>
     <g id="text_9">
      <!-- −60 -->
      <defs>
       <path d="M 33.015625 40.375 
Q 26.375 40.375 22.484375 35.828125 
Q 18.609375 31.296875 18.609375 23.390625 
Q 18.609375 15.53125 22.484375 10.953125 
Q 26.375 6.390625 33.015625 6.390625 
Q 39.65625 6.390625 43.53125 10.953125 
Q 47.40625 15.53125 47.40625 23.390625 
Q 47.40625 31.296875 43.53125 35.828125 
Q 39.65625 40.375 33.015625 40.375 
z
M 52.59375 71.296875 
L 52.59375 62.3125 
Q 48.875 64.0625 45.09375 64.984375 
Q 41.3125 65.921875 37.59375 65.921875 
Q 27.828125 65.921875 22.671875 59.328125 
Q 17.53125 52.734375 16.796875 39.40625 
Q 19.671875 43.65625 24.015625 45.921875 
Q 28.375 48.1875 33.59375 48.1875 
Q 44.578125 48.1875 50.953125 41.515625 
Q 57.328125 34.859375 57.328125 23.390625 
Q 57.328125 12.15625 50.6875 5.359375 
Q 44.046875 -1.421875 33.015625 -1.421875 
Q 20.359375 -1.421875 13.671875 8.265625 
Q 6.984375 17.96875 6.984375 36.375 
Q 6.984375 53.65625 15.1875 63.9375 
Q 23.390625 74.21875 37.203125 74.21875 
Q 40.921875 74.21875 44.703125 73.484375 
Q 48.484375 72.75 52.59375 71.296875 
z
" id="DejaVuSans-54"/>
      </defs>
      <g transform="translate(29.495313 251.065603)scale(0.1 -0.1)">
       <use xlink:href="#DejaVuSans-8722"/>
       <use x="83.789062" xlink:href="#DejaVuSans-54"/>
       <use x="147.412109" xlink:href="#DejaVuSans-48"/>
      </g>
     </g>
    </g>
    <g id="ytick_3">
     <g id="line2d_10">
      <g>
       <use style="stroke:#000000;stroke-width:0.8;" x="57.6" xlink:href="#md292a71851" y="202.774263"/>
      </g>
     </g>
     <g id="text_10">
      <!-- −40 -->
      <defs>
       <path d="M 37.796875 64.3125 
L 12.890625 25.390625 
L 37.796875 25.390625 
z
M 35.203125 72.90625 
L 47.609375 72.90625 
L 47.609375 25.390625 
L 58.015625 25.390625 
L 58.015625 17.1875 
L 47.609375 17.1875 
L 47.609375 0 
L 37.796875 0 
L 37.796875 17.1875 
L 4.890625 17.1875 
L 4.890625 26.703125 
z
" id="DejaVuSans-52"/>
      </defs>
      <g transform="translate(29.495313 206.573482)scale(0.1 -0.1)">
       <use xlink:href="#DejaVuSans-8722"/>
       <use x="83.789062" xlink:href="#DejaVuSans-52"/>
       <use x="147.412109" xlink:href="#DejaVuSans-48"/>
      </g>
     </g>
    </g>
    <g id="ytick_4">
     <g id="line2d_11">
      <g>
       <use style="stroke:#000000;stroke-width:0.8;" x="57.6" xlink:href="#md292a71851" y="158.282142"/>
      </g>
     </g>
     <g id="text_11">
      <!-- −20 -->
      <g transform="translate(29.495313 162.081361)scale(0.1 -0.1)">
       <use xlink:href="#DejaVuSans-8722"/>
       <use x="83.789062" xlink:href="#DejaVuSans-50"/>
       <use x="147.412109" xlink:href="#DejaVuSans-48"/>
      </g>
     </g>
    </g>
    <g id="ytick_5">
     <g id="line2d_12">
      <g>
       <use style="stroke:#000000;stroke-width:0.8;" x="57.6" xlink:href="#md292a71851" y="113.790021"/>
      </g>
     </g>
     <g id="text_12">
      <!-- 0 -->
      <g transform="translate(44.2375 117.58924)scale(0.1 -0.1)">
       <use xlink:href="#DejaVuSans-48"/>
      </g>
     </g>
    </g>
    <g id="ytick_6">
     <g id="line2d_13">
      <g>
       <use style="stroke:#000000;stroke-width:0.8;" x="57.6" xlink:href="#md292a71851" y="69.297901"/>
      </g>
     </g>
     <g id="text_13">
      <!-- 20 -->
      <g transform="translate(37.875 73.097119)scale(0.1 -0.1)">
       <use xlink:href="#DejaVuSans-50"/>
       <use x="63.623047" xlink:href="#DejaVuSans-48"/>
      </g>
     </g>
    </g>
   </g>
   <g id="line2d_14">
    <path clip-path="url(#p21235cc6e3)" d="M 73.832727 291.772553 
L 73.962593 291.745542 
L 74.168215 291.352477 
L 74.525347 290.088054 
L 76.289362 283.106371 
L 76.884582 281.874078 
L 77.436513 281.208692 
L 77.955977 280.910906 
L 78.497086 280.856199 
L 79.124773 281.025749 
L 79.979725 281.507239 
L 81.84114 282.89305 
L 83.507755 283.987154 
L 84.903816 284.636862 
L 86.343166 285.059086 
L 88.031426 285.313611 
L 90.358194 285.419948 
L 96.14806 285.375218 
L 108.723432 285.386059 
L 149.577158 285.505151 
L 149.73949 270.26821 
L 150.194022 252.965458 
L 150.767597 231.305372 
L 150.843352 218.42181 
L 150.875819 174.936892 
L 150.897463 53.568 
L 150.984041 184.798157 
L 151.168018 251.360545 
L 151.200484 251.653874 
L 151.243773 251.123986 
L 151.449394 244.488751 
L 151.741593 229.344307 
L 151.806526 214.812301 
L 151.838993 137.180011 
L 151.849815 61.821608 
L 151.936393 184.140144 
L 152.12037 253.86189 
L 152.152836 254.287596 
L 152.217769 253.588472 
L 152.499146 245.494574 
L 152.899566 230.253908 
L 152.975322 218.48082 
L 153.007788 185.670373 
L 153.029433 62.8378 
L 153.11601 185.469417 
L 153.299987 253.606259 
L 153.354098 254.325202 
L 153.408209 253.87198 
L 154.934136 230.109154 
L 155.031536 221.707719 
L 155.074824 202.85753 
L 155.107291 76.180405 
L 155.193868 185.10538 
L 155.388668 249.577526 
L 155.518534 251.746065 
L 155.540178 251.711952 
L 155.702511 250.925233 
L 155.973065 250.112405 
L 156.135398 250.107336 
L 156.373486 250.413487 
L 157.260905 251.680216 
L 157.715436 251.915866 
L 158.18079 251.904917 
L 158.721899 251.653478 
L 159.414518 251.066853 
L 160.356048 249.953382 
L 161.611421 248.102293 
L 162.975015 245.696492 
L 164.046411 243.370761 
L 164.803963 241.205715 
L 165.33425 239.025405 
L 165.713026 236.486504 
L 165.961936 233.256656 
L 166.124269 227.893138 
L 166.210847 215.860036 
L 166.243313 184.300294 
L 166.264957 78.949248 
L 166.351535 184.987549 
L 166.546334 248.76579 
L 166.697845 251.366351 
L 166.7736 251.18012 
L 167.109087 250.351244 
L 167.260598 250.434054 
L 167.552797 250.971199 
L 168.277883 252.278418 
L 168.732414 252.65785 
L 169.176124 252.748856 
L 169.663122 252.61307 
L 170.279986 252.189824 
L 171.113294 251.321857 
L 172.282089 249.753246 
L 173.77555 247.362672 
L 175.1175 244.811918 
L 176.069852 242.54117 
L 176.740827 240.369464 
L 177.20618 238.108943 
L 177.530846 235.397593 
L 177.747289 231.580697 
L 177.877155 224.851623 
L 177.942088 206.959404 
L 177.985377 72.79643 
L 178.061132 181.149184 
L 178.255932 248.389938 
L 178.39662 251.190271 
L 178.407442 251.188551 
L 178.49402 250.928523 
L 178.829507 249.958195 
L 178.981018 249.995147 
L 179.24075 250.397869 
L 180.052413 251.725355 
L 180.506945 252.037726 
L 180.950654 252.08352 
L 181.459297 251.901425 
L 182.108627 251.41025 
L 182.985224 250.441174 
L 184.175664 248.770102 
L 185.582547 246.408148 
L 186.762164 244.012601 
L 187.606294 241.809406 
L 188.201514 239.637116 
L 188.623579 237.220453 
L 188.904956 234.273877 
L 189.088933 229.857218 
L 189.197155 220.781594 
L 189.240443 199.490477 
L 189.27291 73.657541 
L 189.348665 178.504103 
L 189.543464 248.454055 
L 189.684153 251.274738 
L 189.694975 251.266172 
L 189.792374 250.887796 
L 190.127862 249.725621 
L 190.301017 249.712583 
L 190.549927 250.027989 
L 191.404879 251.211362 
L 191.859411 251.441006 
L 192.324764 251.424571 
L 192.865873 251.166768 
L 193.558493 250.571421 
L 194.500022 249.44305 
L 195.733751 247.593688 
L 197.02159 245.266412 
L 198.038875 242.98044 
L 198.763961 240.804361 
L 199.272603 238.561812 
L 199.618913 236.028767 
L 199.857001 232.570414 
L 200.008511 226.558612 
L 200.084267 212.473744 
L 200.116733 154.782198 
L 200.138377 75.109336 
L 200.214133 182.938388 
L 200.408932 248.868732 
L 200.538798 251.26145 
L 200.560442 251.231682 
L 200.701131 250.532103 
L 200.99333 249.493589 
L 201.177307 249.437749 
L 201.415395 249.689728 
L 202.324458 250.790949 
L 202.778989 250.958094 
L 203.255165 250.892045 
L 203.817918 250.575895 
L 204.553826 249.886397 
L 205.538645 248.632708 
L 206.761551 246.699398 
L 207.941168 244.42614 
L 208.839409 242.224242 
L 209.477918 240.076843 
L 209.932449 237.747923 
L 210.246293 234.90382 
L 210.451914 230.789102 
L 210.570958 223.263664 
L 210.625069 204.917878 
L 210.668358 75.661467 
L 210.744113 183.289968 
L 210.938912 249.00141 
L 211.057956 251.280019 
L 211.090423 251.236527 
L 211.263577 250.280317 
L 211.544954 249.300029 
L 211.728931 249.233433 
L 211.967019 249.454629 
L 212.876082 250.437022 
L 213.330614 250.567903 
L 213.817612 250.470809 
L 214.402009 250.11074 
L 215.159562 249.362332 
L 216.155202 248.045605 
L 217.345642 246.09331 
L 218.449504 243.862806 
L 219.27199 241.713261 
L 219.86721 239.530785 
L 220.278452 237.169947 
L 220.559829 234.241245 
L 220.743806 229.883773 
L 220.852028 221.127147 
L 220.895317 201.965111 
L 220.927783 78.059132 
L 221.014361 185.69589 
L 221.20916 249.32652 
L 221.328204 251.353254 
L 221.36067 251.282451 
L 221.60958 249.828507 
L 221.869313 249.119536 
L 222.05329 249.097714 
L 222.334666 249.367219 
L 223.092219 250.106003 
L 223.557573 250.238574 
L 224.044571 250.140851 
L 224.628968 249.780825 
L 225.386521 249.03026 
L 226.371339 247.718806 
L 227.529312 245.79588 
L 228.589886 243.609823 
L 229.390727 241.453416 
L 229.95348 239.308577 
L 230.353901 236.89592 
L 230.624455 233.881586 
L 230.79761 229.410506 
L 230.89501 221.088553 
L 230.938299 201.799717 
L 230.970765 77.745609 
L 231.057343 185.850677 
L 231.252142 249.388144 
L 231.371186 251.352449 
L 231.403652 251.270848 
L 232.052983 248.934125 
L 232.280249 249.07874 
L 233.297534 249.93557 
L 233.762887 249.970304 
L 234.282352 249.775525 
L 234.931683 249.272643 
L 235.775813 248.311263 
L 236.836386 246.745702 
L 237.961893 244.684088 
L 238.8926 242.520073 
L 239.563575 240.407135 
L 240.039751 238.182051 
L 240.375239 235.527026 
L 240.602504 231.787756 
L 240.732371 225.882161 
L 240.797304 213.909169 
L 240.82977 169.132553 
L 240.851415 72.595051 
L 240.92717 180.522381 
L 241.121969 248.86056 
L 241.241013 251.198594 
L 241.27348 251.141761 
L 241.457457 250.010636 
L 241.749655 248.895031 
L 241.955277 248.786542 
L 242.204187 248.973698 
L 243.091606 249.75427 
L 243.556959 249.831286 
L 244.065602 249.6787 
L 244.682466 249.242152 
L 245.483307 248.378691 
L 246.500592 246.9327 
L 247.615276 244.957374 
L 248.567628 242.830316 
L 249.281892 240.693551 
L 249.790534 238.455001 
L 250.136844 235.924998 
L 250.374932 232.473195 
L 250.526443 226.47522 
L 250.602198 212.386777 
L 250.634664 154.535399 
L 250.656309 75.397304 
L 250.732064 183.222263 
L 250.926863 249.191625 
L 251.045907 251.273716 
L 251.078374 251.192282 
L 251.35975 249.443196 
L 251.619483 248.739785 
L 251.814282 248.701325 
L 252.117303 248.947336 
L 252.831567 249.520709 
L 253.307743 249.607342 
L 253.805563 249.466641 
L 254.411605 249.049974 
L 255.190802 248.224423 
L 256.17562 246.839666 
L 257.26866 244.913892 
L 258.221012 242.790989 
L 258.924453 240.689894 
L 259.433096 238.462419 
L 259.790228 235.846984 
L 260.028316 232.322006 
L 260.169004 226.821447 
L 260.244759 214.558288 
L 260.277226 174.985415 
L 260.29887 73.334211 
L 260.385448 187.865963 
L 260.580247 249.496091 
L 260.688469 251.259837 
L 260.720935 251.190928 
L 260.926556 249.846544 
L 261.207933 248.75173 
L 261.413555 248.609538 
L 261.651642 248.746114 
L 262.614816 249.452331 
L 263.090992 249.465508 
L 263.621279 249.244881 
L 264.281432 248.708076 
L 265.125562 247.713382 
L 266.164491 246.12841 
L 267.225065 244.102461 
L 268.080017 241.999235 
L 268.707703 239.866547 
L 269.151412 237.561595 
L 269.454433 234.801687 
L 269.660055 230.719335 
L 269.779099 223.31647 
L 269.83321 205.764119 
L 269.876498 74.510317 
L 269.952254 182.678607 
L 270.147053 249.175405 
L 270.255275 251.240686 
L 270.298563 251.151684 
L 270.969538 248.519365 
L 271.196804 248.618251 
L 272.279022 249.333841 
L 272.755198 249.297877 
L 273.307129 249.02005 
L 273.999749 248.401222 
L 274.887167 247.286879 
L 275.936919 245.5985 
L 276.954203 243.541102 
L 277.744223 241.451276 
L 278.317798 239.311079 
L 278.729041 236.886887 
L 279.010417 233.792307 
L 279.183572 229.331406 
L 279.280972 221.021617 
L 279.324261 201.708967 
L 279.356727 77.902561 
L 279.443305 186.060889 
L 279.638104 249.571994 
L 279.746326 251.359429 
L 279.778792 251.282784 
L 279.984414 249.865293 
L 280.276612 248.658006 
L 280.493056 248.484747 
L 280.741966 248.601735 
L 281.683496 249.188505 
L 282.170494 249.169909 
L 282.711603 248.914648 
L 283.382578 248.336628 
L 284.248352 247.274919 
L 285.276459 245.648476 
L 286.282922 243.645437 
L 287.083763 241.569841 
L 287.668161 239.447425 
L 288.090226 237.047707 
L 288.371602 234.136613 
L 288.555579 229.828171 
L 288.663801 221.290028 
L 288.70709 203.374847 
L 288.750378 78.385411 
L 288.826134 184.845215 
L 289.020933 249.509277 
L 289.129155 251.351177 
L 289.161621 251.276763 
L 289.35642 249.919577 
L 289.659441 248.610441 
L 289.875885 248.422367 
L 290.124795 248.52737 
L 291.087969 249.095897 
L 291.574967 249.062126 
L 292.126898 248.786558 
L 292.808696 248.180658 
L 293.685292 247.081847 
L 294.713399 245.423187 
L 295.70904 243.39381 
L 296.488236 241.30522 
L 297.05099 239.164526 
L 297.45141 236.748911 
L 297.721965 233.721528 
L 297.89512 229.196624 
L 297.992519 220.539996 
L 298.035808 198.665723 
L 298.068275 73.599479 
L 298.14403 179.351931 
L 298.338829 249.061988 
L 298.457873 251.26456 
L 298.490339 251.177715 
L 298.73925 249.475819 
L 299.020626 248.489568 
L 299.23707 248.371412 
L 299.518446 248.533102 
L 300.319288 249.040449 
L 300.795464 249.05583 
L 301.32575 248.839902 
L 301.975081 248.317191 
L 302.808389 247.337248 
L 303.814852 245.79255 
L 304.832136 243.82286 
L 305.654622 241.757952 
L 306.260664 239.644224 
L 306.693551 237.318343 
L 306.996572 234.394411 
L 307.191371 230.147569 
L 307.299593 222.707255 
L 307.353704 201.592006 
L 307.386171 77.820954 
L 307.472748 186.200999 
L 307.667547 249.636704 
L 307.775769 251.355513 
L 307.808236 251.267863 
L 308.046323 249.587856 
L 308.3277 248.502991 
L 308.544144 248.338765 
L 308.803876 248.451456 
L 309.702117 248.953707 
L 310.189115 248.923626 
L 310.741046 248.652276 
L 311.422843 248.049782 
L 312.288618 246.96679 
L 313.305902 245.324806 
L 314.279899 243.336258 
L 315.059095 241.24222 
L 315.621849 239.087576 
L 316.022269 236.640365 
L 316.292824 233.53148 
L 316.465979 228.720299 
L 316.563378 218.351475 
L 316.606667 178.755116 
L 316.628311 75.134836 
L 316.714889 187.182352 
L 316.909688 249.65604 
L 317.007088 251.313574 
L 317.050376 251.221047 
L 317.320931 249.345411 
L 317.591485 248.42598 
L 317.807929 248.299802 
L 318.089306 248.443359 
L 318.890147 248.903065 
L 319.377145 248.897099 
L 319.918254 248.654525 
L 320.578407 248.09838 
L 321.422537 247.075684 
L 322.428999 245.491027 
L 323.42464 243.506049 
L 324.214659 241.445026 
L 324.799056 239.296345 
L 325.210299 236.919614 
L 325.491676 233.94379 
L 325.675653 229.413137 
L 325.773053 221.561593 
L 325.827163 190.470806 
L 325.85963 75.644431 
L 325.935385 183.424491 
L 326.130184 249.390601 
L 326.238406 251.273096 
L 326.270873 251.198612 
L 326.465672 249.816844 
L 326.768693 248.461832 
L 326.995959 248.247307 
L 327.244869 248.339465 
L 328.218865 248.862228 
L 328.705863 248.808937 
L 329.268616 248.508771 
L 329.972058 247.858204 
L 330.859477 246.710135 
L 331.876761 245.018329 
L 332.829113 243.006246 
L 333.565021 240.943205 
L 334.10613 238.75777 
L 334.484907 236.274324 
L 334.744639 232.981044 
L 334.906972 227.718359 
L 334.993549 216.135136 
L 335.026016 187.42992 
L 335.058482 77.868565 
L 335.134237 184.636487 
L 335.329037 249.560313 
L 335.437258 251.333158 
L 335.469725 251.246727 
L 335.696991 249.610129 
L 335.989189 248.416552 
L 336.216455 248.230134 
L 336.476188 248.331932 
L 337.374428 248.795308 
L 337.861426 248.751374 
L 338.413358 248.468353 
L 339.105977 247.84257 
L 339.971751 246.741079 
L 340.978214 245.090511 
L 341.930566 243.108113 
L 342.688118 241.01922 
L 343.229227 238.880647 
L 343.618826 236.404996 
L 343.878558 233.275173 
L 344.040891 228.602409 
L 344.13829 217.866891 
L 344.181579 173.076508 
L 344.203223 73.284806 
L 344.278979 179.95346 
L 344.473778 249.147446 
L 344.582 251.233315 
L 344.625288 251.129589 
L 345.317908 248.203668 
L 345.545173 248.259551 
L 346.692324 248.814007 
L 347.190145 248.701008 
L 347.785364 248.319889 
L 348.532095 247.554541 
L 349.462802 246.260587 
L 350.480087 244.459043 
L 351.378328 242.423109 
L 352.060125 240.331152 
L 352.547123 238.119746 
L 352.893433 235.465863 
L 353.120699 231.908545 
L 353.261387 225.801871 
L 353.32632 214.092233 
L 353.358787 171.705178 
L 353.380431 73.141626 
L 353.456186 180.270014 
L 353.650985 249.161069 
L 353.759207 251.218041 
L 353.802496 251.111086 
L 354.484293 248.180831 
L 354.711559 248.225672 
L 355.912821 248.779318 
L 356.421463 248.641746 
L 357.027505 248.228968 
L 357.785058 247.425067 
L 358.726587 246.083887 
L 359.743872 244.24065 
L 360.620469 242.198387 
L 361.280622 240.099755 
L 361.756797 237.825925 
L 362.081463 235.171821 
L 362.297906 231.518636 
L 362.427773 225.436859 
L 362.492706 212.202232 
L 362.525172 153.760338 
L 362.546817 75.988414 
L 362.622572 183.63862 
L 362.817371 249.460943 
L 362.925593 251.274873 
L 362.958059 251.19133 
L 363.174503 249.624498 
L 363.466702 248.365557 
L 363.693967 248.151372 
L 363.942878 248.23305 
L 364.916874 248.707291 
L 365.414694 248.634101 
L 365.988269 248.307654 
L 366.020736 248.282629 
L 366.183069 261.976992 
L 366.561845 272.570109 
L 367.081309 281.287269 
L 367.633241 287.089227 
L 368.195994 290.820237 
L 368.747925 293.097952 
L 369.278212 294.414673 
L 369.776032 295.107203 
L 370.252208 295.41874 
L 370.750028 295.483949 
L 371.345248 295.325097 
L 372.178556 294.849243 
L 374.451213 293.170294 
L 376.17194 292.095816 
L 377.871022 291.300326 
L 379.840658 290.631604 
L 382.373048 290.019644 
L 385.966012 289.397336 
L 391.279702 288.718033 
L 398.487273 288.028256 
L 398.487273 288.028256 
" style="fill:none;stroke:#000000;stroke-linecap:square;stroke-width:1.5;"/>
   </g>
   <g id="patch_3">
    <path d="M 57.6 307.584 
L 57.6 41.472 
" style="fill:none;stroke:#000000;stroke-linecap:square;stroke-linejoin:miter;stroke-width:0.8;"/>
   </g>
   <g id="patch_4">
    <path d="M 414.72 307.584 
L 414.72 41.472 
" style="fill:none;stroke:#000000;stroke-linecap:square;stroke-linejoin:miter;stroke-width:0.8;"/>
   </g>
   <g id="patch_5">
    <path d="M 57.6 307.584 
L 414.72 307.584 
" style="fill:none;stroke:#000000;stroke-linecap:square;stroke-linejoin:miter;stroke-width:0.8;"/>
   </g>
   <g id="patch_6">
    <path d="M 57.6 41.472 
L 414.72 41.472 
" style="fill:none;stroke:#000000;stroke-linecap:square;stroke-linejoin:miter;stroke-width:0.8;"/>
   </g>
  </g>
 </g>
 <defs>
  <clipPath id="p21235cc6e3">
   <rect height="266.112" width="357.12" x="57.6" y="41.472"/>
  </clipPath>
 </defs>
</svg>
